<?xml version="1.0" encoding="UTF-8" standalone="no"?>
<svg xmlns="http://www.w3.org/2000/svg" height="391" width="580">
  <defs>
    <linearGradient id="e" y2="93.891602" gradientUnits="userSpaceOnUse" x2="125.8384" gradientTransform="matrix(.9988 -.05 .05 .9988 4.8774 1.0598)" y1="93.891602" x1="110.9321">
      <stop stop-color="#ffffe1" offset="0"/>
      <stop stop-color="#ffb800" offset="1"/>
    </linearGradient>
    <linearGradient id="d" y2="74.258797" gradientUnits="userSpaceOnUse" x2="113.8833" gradientTransform="matrix(1.0736 -.0537 .0541 1.082 2.6032 6.2865)" y1="74.258797" x1="100.8462">
      <stop stop-color="#ffffe1" offset="0"/>
      <stop stop-color="#ffb800" offset="1"/>
    </linearGradient>
    <linearGradient id="c" y2="86.498001" gradientUnits="userSpaceOnUse" x2="135.4263" y1="86.498001" x1="121.479">
      <stop stop-color="#ffae00" offset="0"/>
      <stop stop-color="#4c1c00" offset="1"/>
    </linearGradient>
    <linearGradient id="b" y2="81.199203" gradientUnits="userSpaceOnUse" x2="135.4296" y1="81.199203" x1="107.3989">
      <stop stop-color="#ffae00" offset="0"/>
      <stop stop-color="#4c1c00" offset="1"/>
    </linearGradient>
    <linearGradient id="ad" y2="75.485397" gradientUnits="userSpaceOnUse" x2="103.6948" gradientTransform="matrix(.9988 -.05 .05 .9988 4.8774 1.0598)" y1="75.485397" x1="88.787598">
      <stop stop-color="#ffffe1" offset="0"/>
      <stop stop-color="#ffb800" offset="1"/>
    </linearGradient>
    <linearGradient id="ac" y2="57.269501" gradientUnits="userSpaceOnUse" x2="93.2817" gradientTransform="matrix(1.0736 -.0537 .0541 1.082 2.6032 6.2865)" y1="57.269501" x1="80.244598">
      <stop stop-color="#ffffe1" offset="0"/>
      <stop stop-color="#ffb800" offset="1"/>
    </linearGradient>
    <linearGradient id="ab" y2="69.222702" gradientUnits="userSpaceOnUse" x2="112.3882" y1="69.222702" x1="98.440903">
      <stop stop-color="#ffae00" offset="0"/>
      <stop stop-color="#4c1c00" offset="1"/>
    </linearGradient>
    <linearGradient id="aa" y2="63.922901" gradientUnits="userSpaceOnUse" x2="112.3923" y1="63.922901" x1="84.360802">
      <stop stop-color="#ffae00" offset="0"/>
      <stop stop-color="#4c1c00" offset="1"/>
    </linearGradient>
    <linearGradient id="z" y2="57.439499" gradientUnits="userSpaceOnUse" x2="82.0728" gradientTransform="matrix(.9988 -.05 .05 .9988 4.8774 1.0598)" y1="57.439499" x1="67.165497">
      <stop stop-color="#ffffe1" offset="0"/>
      <stop stop-color="#ffb800" offset="1"/>
    </linearGradient>
    <linearGradient id="y" y2="40.611301" gradientUnits="userSpaceOnUse" x2="73.165497" gradientTransform="matrix(1.0736 -.0537 .0541 1.082 2.6032 6.2865)" y1="40.611301" x1="60.128899">
      <stop stop-color="#ffffe1" offset="0"/>
      <stop stop-color="#ffb800" offset="1"/>
    </linearGradient>
    <linearGradient y2="52.278301" gradientUnits="userSpaceOnUse" x2="89.891098" y1="52.278301" x1="75.942902">
      <stop stop-color="#ffae00" offset="0"/>
      <stop stop-color="#4c1c00" offset="1"/>
    </linearGradient>
    <linearGradient id="w" y2="46.9795" gradientUnits="userSpaceOnUse" x2="89.893799" y1="46.9795" x1="61.862301">
      <stop stop-color="#ffae00" offset="0"/>
      <stop stop-color="#4c1c00" offset="1"/>
    </linearGradient>
    <linearGradient id="v" y2="114.7903" gradientUnits="userSpaceOnUse" x2="119.8942" y1="-14.248" x1="-46.7803">
      <stop stop-color="#fff" offset="0"/>
      <stop stop-color="#36364c" offset="1"/>
    </linearGradient>
    <linearGradient id="u" y2="106.86" gradientUnits="userSpaceOnUse" x2="67.660004" y1="88.609398" x1="115.064">
      <stop stop-color="#fff" offset="0"/>
      <stop stop-color="#4b4b73" offset="1"/>
    </linearGradient>
    <linearGradient id="t" y2="118.6349" gradientUnits="userSpaceOnUse" x2="69.0401" y1="36.2827" x1="66.248497">
      <stop stop-color="#fff" offset="0"/>
      <stop stop-color="#4b4b73" offset="1"/>
    </linearGradient>
    <linearGradient id="s" y2="71.006203" gradientUnits="userSpaceOnUse" x2="90.116798" y1="91.379898" x1="96.9263">
      <stop stop-color="#fff" offset="0"/>
      <stop stop-color="#dcdce4" offset=".1023"/>
      <stop stop-color="#b0b0c2" offset=".25130001"/>
      <stop stop-color="#8c8ca5" offset=".4021"/>
      <stop stop-color="#6f6f8f" offset=".55239999"/>
      <stop stop-color="#5b5b80" offset=".70240003"/>
      <stop stop-color="#4f4f76" offset=".85170001"/>
      <stop stop-color="#4b4b73" offset="1"/>
    </linearGradient>
    <linearGradient id="r" y2="136.008" gradientUnits="userSpaceOnUse" x2="81.651497" y1="47.140099" x1="20.672899">
      <stop stop-color="#fff" offset="0"/>
      <stop stop-color="#4b4b73" offset="1"/>
    </linearGradient>
    <linearGradient id="q" y2="106.5631" gradientUnits="userSpaceOnUse" x2="85.869598" y1="20.897499" x1="85.869598">
      <stop stop-color="#fff" offset="0"/>
      <stop stop-color="#4b4b73" offset="1"/>
    </linearGradient>
    <linearGradient id="p" y2="111.8145" gradientUnits="userSpaceOnUse" x2="69.799797" y1="111.8145" x1="38.502899">
      <stop stop-color="#ffae00" offset="0"/>
      <stop stop-color="#4c1c00" offset="1"/>
    </linearGradient>
    <linearGradient id="o" y2="107.9199" gradientUnits="userSpaceOnUse" x2="83.902603" gradientTransform="matrix(.9993 .037 -.037 .9993 -1.43 1.8062)" y1="107.9199" x1="53.175301">
      <stop stop-color="#ffae00" offset="0"/>
      <stop stop-color="#4c1c00" offset="1"/>
    </linearGradient>
    <linearGradient id="n" y2="107.1396" gradientUnits="userSpaceOnUse" x2="65.050301" gradientTransform="matrix(.9993 .037 -.037 .9993 -1.43 1.8062)" y1="107.1396" x1="52.4473">
      <stop stop-color="#ffffe1" offset="0"/>
      <stop stop-color="#ffb800" offset="1"/>
    </linearGradient>
    <linearGradient id="m" y2="118.8193" gradientUnits="userSpaceOnUse" x2="62.183102" gradientTransform="matrix(.9993 .037 -.037 .9993 -1.43 1.8062)" y1="118.8193" x1="47.275398">
      <stop stop-color="#ffffe1" offset="0"/>
      <stop stop-color="#ffb800" offset="1"/>
    </linearGradient>
    <linearGradient id="l" y2="94.094704" gradientUnits="userSpaceOnUse" x2="50.0928" y1="94.094704" x1="18.7959">
      <stop stop-color="#ffae00" offset="0"/>
      <stop stop-color="#4c1c00" offset="1"/>
    </linearGradient>
    <linearGradient id="k" y2="90.940399" gradientUnits="userSpaceOnUse" x2="63.5536" gradientTransform="matrix(.9993 .037 -.037 .9993 -1.43 1.8062)" y1="90.940399" x1="32.825699">
      <stop stop-color="#ffae00" offset="0"/>
      <stop stop-color="#4c1c00" offset="1"/>
    </linearGradient>
    <linearGradient id="j" y2="90.161102" gradientUnits="userSpaceOnUse" x2="44.700699" gradientTransform="matrix(.9993 .037 -.037 .9993 -1.43 1.8062)" y1="90.161102" x1="32.098099">
      <stop stop-color="#ffffe1" offset="0"/>
      <stop stop-color="#ffb800" offset="1"/>
    </linearGradient>
    <linearGradient id="i" y2="101.8398" gradientUnits="userSpaceOnUse" x2="41.8335" gradientTransform="matrix(.9993 .037 -.037 .9993 -1.43 1.8062)" y1="101.8398" x1="26.9258">
      <stop stop-color="#ffffe1" offset="0"/>
      <stop stop-color="#ffb800" offset="1"/>
    </linearGradient>
    <linearGradient id="h" y2="76.534203" gradientUnits="userSpaceOnUse" x2="31.505899" y1="76.534203" x1=".20900001">
      <stop stop-color="#ffae00" offset="0"/>
      <stop stop-color="#4c1c00" offset="1"/>
    </linearGradient>
    <linearGradient id="g" y2="74.080101" gradientUnits="userSpaceOnUse" x2="44.3288" gradientTransform="matrix(.9993 .037 -.037 .9993 -1.43 1.8062)" y1="74.080101" x1="13.6016">
      <stop stop-color="#ffae00" offset="0"/>
      <stop stop-color="#4c1c00" offset="1"/>
    </linearGradient>
    <linearGradient id="f" y2="73.300797" gradientUnits="userSpaceOnUse" x2="25.4771" gradientTransform="matrix(.9993 .037 -.037 .9993 -1.43 1.8062)" y1="73.300797" x1="12.874">
      <stop stop-color="#ffffe1" offset="0"/>
      <stop stop-color="#ffb800" offset="1"/>
    </linearGradient>
    <linearGradient id="a" y2="84.9785" gradientUnits="userSpaceOnUse" x2="22.6094" gradientTransform="matrix(.9993 .037 -.037 .9993 -1.43 1.8062)" y1="84.9785" x1="7.7017002">
      <stop stop-color="#ffffe1" offset="0"/>
      <stop stop-color="#ffb800" offset="1"/>
    </linearGradient>
  </defs>
  <g stroke-width="0" transform="matrix(.5555556 0 0 .5555556 0 155.73726)" fill="#fff">
    <path opacity=".2" d="m143.128 99.64-0.018-4.848-2.863-2.229s-2.715-2.174-3.678-2.945c-0.115-1.471-0.55-7.043-0.55-7.043l-0.235-3.461-5.27-4.076-11.354-8.451-1.643 0.558c-1.332-1.002-2.876-2.162-4.648-3.494l-0.123-1.813-5.269-4.076-11.355-8.451-1.618 0.55c-1.364-1.024-2.745-2.062-4.128-3.1l-0.127-1.867-5.27-4.076-11.355-8.451-1.639 0.557c-4.434-3.347-7.516-5.689-8.004-6.101-1.182-0.998-2.954-1.195-4.319-0.468l0.052-0.027c-1.23 0.618-12.945 5.394-22.358 9.23-14.737 6.007-19.142 7.82-19.938 8.258-1.21 0.667-1.961 1.93-1.958 3.313l0.038 14.949-4.259 2.067s0.329 18.254 0.358 19.923c-1.044 0.514-6.213 3.059-6.213 3.059l-0.326 5.436 11.341 11.096 9.795-4.847s0.586-1.089 0.645-1.198c0.087-0.139 1.384-2.225 1.384-2.225s0.693-4.377 1.338-8.443l0.364 0.33c0.1 5.517 0.24 13.291 0.259 14.354-1.044 0.514-6.214 3.059-6.214 3.059l-0.326 5.436 11.34 11.096 9.796-4.848s0.586-1.088 0.646-1.198c0.086-0.139 1.384-2.224 1.384-2.224s0.769-4.85 1.439-9.083l1.386 1.255c0.099 5.508 0.237 13.174 0.257 14.228-1.044 0.515-6.213 3.06-6.213 3.06l-0.327 5.436 11.341 11.094 9.794-4.846s0.586-1.089 0.646-1.199c0.087-0.139 1.384-2.224 1.384-2.224s0.755-4.767 1.422-8.974l7.496 6.787c1.178 1.066 2.953 1.271 4.358 0.529l45.428-23.983c1.245-0.657 1.981-1.915 1.976-3.322l-0.009-1.979 7.235 5.781 8.705-5.869v-0.002zm-7.683-7.289-1.607-1.286-0.168-2.156 0.168 2.156 1.607 1.286zm-2.319-11.688-4.35-3.385-1.725-1.369v-0.001l1.723 1.368 4.352 3.387z" fill="#000030"/>
    <path d="m120.225 86.378 9.936 8.158 5.239-3.188-10.042-8.04-5.133 3.069v0.001z" fill="url(#e)"/>
    <path d="m116.955 86.945-0.744-1.843-2.153-20.509 14.126 11.214-0.32 17.209 1.854 4.127-12.762-10.198h-0.001z" fill="url(#d)"/>
    <path d="m107.397 67.259 14.082 11.236 6.8-2.682-14.231-11.07-6.65 2.516h-0.001z"/>
    <path d="m121.479 78.495 6.7-2.643 1.283 16.424 0.77 1.9 5.168-3.144 0.026 2.261-5.71 3.85-2.283-4.014-1.478-13.98-4.47 1.793-0.007-2.447h0.001z" fill="url(#c)"/>
    <path d="m114.312 61.738 11.355 8.451 5.268 4.076 0.236 3.461s0.435 5.572 0.55 7.045c0.964 0.771 3.677 2.943 3.677 2.943l2.865 2.23 0.017 4.846-8.706 5.87-14.971-11.964-1.172-2.902s-0.956-9.102-1.156-11.014c-1.429-1.141-10.541-8.412-10.541-8.412l9.291-3.514 3.287-1.117v0.001zm21.088 29.295-0.224 0.136-6.188-4.953-0.808-10.338v-0.026l0.098-0.038-4.354-3.386-9.868-7.834 0.019 0.173-0.028-0.022-6.65 2.516 7.575 6.044 1.238 11.799 0.744 1.843 12.762 10.198 5.71-3.85-0.026-2.261v-0.001z" fill="url(#b)"/>
    <path d="m97.187 69.102 9.936 8.158 5.24-3.187-10.042-8.041-5.134 3.069v0.001z" fill="url(#ad)"/>
    <path d="m93.917 69.669-0.745-1.843-2.152-20.509 14.125 11.214-0.319 17.208 1.854 4.128-12.763-10.198z" fill="url(#ac)"/>
    <path d="m84.359 49.983 14.082 11.236 6.8-2.681-14.23-11.07-6.651 2.515h-0.001z"/>
    <path d="m98.441 61.219 6.701-2.643 1.283 16.424 0.77 1.901 5.168-3.144 0.025 2.26-5.709 3.851-2.283-4.014-1.478-13.982-4.47 1.795-0.008-2.448h0.001z" fill="url(#ab)"/>
    <path d="m91.274 44.462 11.355 8.451 5.269 4.076 0.235 3.461s0.436 5.572 0.551 7.043c0.963 0.772 3.677 2.944 3.677 2.944l2.864 2.229 0.018 4.848-8.706 5.869-14.971-11.962-1.172-2.902s-0.956-9.103-1.156-11.015c-1.43-1.14-10.542-8.412-10.542-8.412l9.291-3.514 3.287-1.116zm21.089 29.296-0.225 0.136-6.187-4.954-0.808-10.338v-0.026l0.097-0.038-4.353-3.386-9.868-7.834 0.019 0.173-0.028-0.022-6.651 2.515 7.575 6.044 1.238 11.799 0.745 1.843 12.762 10.199 5.709-3.851-0.025-2.26z" fill="url(#aa)"/>
    <path d="m74.689 52.158 9.936 8.158 5.24-3.188-10.042-8.04-5.134 3.069v0.001z" fill="url(#z)"/>
    <path d="m71.419 52.726-0.744-1.843-2.152-20.509 14.125 11.214-0.32 17.208 1.854 4.127-12.763-10.197z" fill="url(#y)"/>
    <path d="m61.861 33.04 14.082 11.235 6.8-2.681-14.23-11.07-6.651 2.516h-0.001z"/>
    <path d="m75.943 44.275 6.701-2.642 1.283 16.424 0.77 1.901 5.168-3.144 0.026 2.26-5.71 3.85-2.283-4.013-1.478-13.982-4.47 1.794-0.008-2.448h0.001z" fill="url(#x)"/>
    <path d="m68.776 27.519 11.355 8.451 5.269 4.076 0.236 3.461s0.435 5.572 0.549 7.044c0.965 0.771 3.678 2.944 3.678 2.944l2.864 2.229 0.018 4.846-8.706 5.87-14.972-11.963-1.171-2.902s-0.956-9.103-1.156-11.015c-1.429-1.14-10.542-8.411-10.542-8.411l9.292-3.514 3.287-1.117-0.001 0.001zm21.089 29.294-0.225 0.137-6.186-4.954-0.809-10.338v-0.026l0.097-0.038-4.353-3.386-9.868-7.834 0.018 0.173-0.028-0.022-6.651 2.516 7.575 6.044 1.239 11.799 0.744 1.843 12.762 10.198 5.71-3.85-0.026-2.26 0.001-0.002z" fill="url(#w)"/>
    <path d="m14.394 42.281c0 1.741 0.064 24.125 0.064 25.429 0.96 0.876 57.135 51.722 58.678 53.132 1.836-1.001 43.896-23.151 45.43-23.984 0-1.752-0.104-24.117-0.104-25.428-0.97-0.877-60.272-45.204-61.821-46.612-1.831 1.01-40.727 16.625-42.246 17.463h-0.001z"/>
    <path d="m59.132 21.975c1.323 1.115 21.635 16.364 36.467 27.499 20.898 15.688 24.934 18.731 25.399 19.152 0.788 0.713 1.239 1.741 1.245 2.804l0.104 25.428c0.006 1.407-0.73 2.664-1.975 3.322l-45.428 23.982c-1.405 0.742-3.181 0.538-4.359-0.529l-58.677-53.13c-0.789-0.714-1.229-1.728-1.232-2.793l-0.064-25.429c-0.004-1.382 0.747-2.646 1.958-3.313 0.795-0.438 5.201-2.251 19.938-8.258 9.413-3.836 21.127-8.612 22.358-9.23l-0.052 0.028c1.365-0.728 3.137-0.53 4.319 0.468l-0.001-0.001zm-44.738 20.306c0 0.141 0.064 22.524 0.064 25.429 0.96 0.876 57.135 51.722 58.678 53.132 1.836-1.001 43.896-23.151 45.43-23.984 0-1.752-0.104-24.117-0.104-25.428-0.97-0.877-60.272-45.204-61.821-46.612-1.831 1.01-40.727 16.625-42.246 17.463h-0.001z" fill="url(#v)"/>
    <path d="m75.171 99.623-0.035 18.689 41.854-21.761v-23.016l-12.977 6.604-0.022 7.913-13.866 7.328 0.008-8.178-12.666 6.443s-1.465 1.039-1.896 2.812c-0.43 1.774-0.398 3.166-0.398 3.166h-0.002z" fill="url(#u)"/>
    <path d="m56.64 26.086 60.35 45.716-13.322 7.138s-7.119-5.336-8.018-5.971c-0.898-0.634-5.568-4.916-12.281-1.365-5.288 3.07-1.023 7.506-1.023 7.506l7.506 6.652-12.398 6.279s-2.023 0.68-3.316 0.563c-1.295-0.121-2.875-1.428-2.875-1.428l-54.335-48.472 39.712-16.618z" fill="url(#t)"/>
    <path d="m84.32 73.239h-0.002c-1.023 0.596-1.592 1.24-1.689 1.92-0.012 0.08-0.018 0.162-0.018 0.246 0 0.825 0.544 1.754 1.052 2.346 0.132 0.115 8.528 7.498 8.528 7.498s0.034 4.709 0.049 6.708c2.043-1.079 9.098-4.808 9.908-5.235 0.001-0.908 0.008-5.78 0.01-6.549-0.693-0.516-7.709-5.741-7.709-5.741-0.029-0.043-0.412-0.315-0.412-0.315-1.625-1.176-5.004-3.624-9.717-0.877v-0.001z" fill="url(#s)"/>
    <path d="m72.562 98.98 0.035 18.69-56.936-51.308v-22.391l54.684 49.032s1.416 1.037 1.832 2.811c0.416 1.775 0.386 3.167 0.386 3.167l-0.001-0.001z" fill="url(#r)"/>
    <path d="m66.252 56.538c15.441-10.4-10.114-24.625-9.612-29.043l58.459 44.485-11.09 5.595-8.359-6.312s-6.068-4.599-13.135-0.853c-6.994 3.924-1.535 9.723-1.535 9.723l6.652 5.629-12.725 6.156s-25.187-24.247-8.655-35.381v0.001z" fill="url(#q)"/>
    <path d="m55.067 89.538 14.733 13.504-0.22 5.152s-5.348 2.645-5.553 2.746c-0.378 2.389-2.358 14.881-2.358 14.881s-1.297 2.084-1.384 2.223c-0.06 0.111-0.646 1.199-0.646 1.199l-9.795 4.848-11.341-11.096 0.327-5.436s5.169-2.545 6.213-3.059c-0.031-1.668-0.359-19.924-0.359-19.924l8.649-4.197 1.734-0.842v0.001zm-0.496 3.394 12.339 11.308-0.092 2.155c-2.143 1.061-4.635 2.293-5.363 2.653-0.271 1.71-2.498 15.761-2.498 15.761l-1.128 1.813-0.259 0.481-7.181 3.554-8.977-8.783 0.152-2.498s4.651-2.296 5.401-2.66c0.142-0.203 0.93-1.344 0.93-1.344l-0.343-19.034 7.019-3.406z" fill="url(#p)"/>
    <path d="m47.552 96.338 0.343 19.034s-0.789 1.141-0.93 1.344c-0.75 0.364-5.401 2.66-5.401 2.66l-0.152 2.498 8.977 8.783 7.181-3.554 0.259-0.481 1.128-1.813s2.227-14.051 2.498-15.761c0.728-0.36 3.221-1.593 5.363-2.653l0.092-2.155-12.339-11.308-7.019 3.406z" fill="url(#o)"/>
    <path d="m47.552 96.338 12.188 11.45 7.17-3.548-12.339-11.308-7.019 3.406z"/>
    <path d="m46.922 116.774 0.973-1.402-0.343-19.034 12.188 11.45-2.591 16.348-0.939 1.51-9.288-8.871v-0.001z" fill="url(#n)"/>
    <path d="m41.524 119.375 9.189 8.991 5.497-2.721-9.305-8.882-5.38 2.611-0.001 0.001z" fill="url(#m)"/>
    <path d="m35.36 71.819 14.733 13.503-0.22 5.151s-5.348 2.646-5.553 2.747c-0.378 2.388-2.358 14.88-2.358 14.88s-1.297 2.086-1.384 2.225c-0.06 0.109-0.645 1.198-0.645 1.198l-9.796 4.847-11.34-11.095 0.326-5.436s5.169-2.546 6.213-3.06c-0.03-1.668-0.359-19.923-0.359-19.923l8.649-4.197 1.734-0.841v0.001zm-0.496 3.393 12.339 11.309-0.093 2.154c-2.142 1.061-4.635 2.294-5.363 2.654-0.271 1.709-2.498 15.76-2.498 15.76l-1.128 1.813-0.259 0.48-7.181 3.554-8.977-8.783 0.151-2.498s4.651-2.295 5.401-2.66c0.142-0.203 0.93-1.344 0.93-1.344l-0.342-19.033 7.018-3.406h0.002z" fill="url(#l)"/>
    <path d="m27.846 78.618 0.342 19.033s-0.788 1.141-0.93 1.344c-0.75 0.365-5.401 2.66-5.401 2.66l-0.151 2.498 8.977 8.783 7.181-3.554 0.259-0.48 1.128-1.813s2.227-14.051 2.498-15.76c0.728-0.36 3.221-1.594 5.363-2.654l0.093-2.154-12.341-11.309-7.018 3.406z" fill="url(#k)"/>
    <path d="m27.846 78.618 12.187 11.449 7.17-3.547-12.339-11.308-7.018 3.406z"/>
    <path d="m27.214 99.055 0.973-1.403-0.342-19.033 12.187 11.449-2.591 16.348-0.939 1.511-9.288-8.871v-0.001z" fill="url(#j)"/>
    <path d="m21.817 101.654 9.189 8.991 5.497-2.72-9.306-8.882-5.38 2.61v0.001z" fill="url(#i)"/>
    <path d="m16.773 54.258 14.733 13.503-0.22 5.151s-5.348 2.646-5.553 2.748c-0.379 2.388-2.358 14.879-2.358 14.879s-1.297 2.086-1.384 2.225c-0.059 0.109-0.646 1.199-0.646 1.199l-9.795 4.847-11.341-11.094 0.326-5.436s5.169-2.546 6.214-3.06c-0.03-1.668-0.359-19.923-0.359-19.923l8.648-4.197 1.734-0.842h0.001zm-0.496 3.393 12.339 11.309-0.092 2.155c-2.142 1.06-4.635 2.294-5.363 2.653-0.271 1.709-2.498 15.761-2.498 15.761l-1.128 1.813-0.259 0.481-7.181 3.553-8.977-8.783 0.151-2.498s4.651-2.296 5.401-2.659c0.142-0.204 0.93-1.345 0.93-1.345l-0.341-19.034 7.018-3.406z" fill="url(#h)"/>
    <path d="m9.259 61.057 0.342 19.034s-0.789 1.141-0.93 1.345c-0.75 0.363-5.401 2.659-5.401 2.659l-0.151 2.498 8.977 8.783 7.181-3.553 0.259-0.481 1.128-1.813s2.226-14.052 2.498-15.761c0.728-0.359 3.222-1.593 5.363-2.653l0.092-2.155-12.34-11.309-7.018 3.406z" fill="url(#g)"/>
    <path d="m9.259 61.057 12.188 11.449 7.17-3.546-12.34-11.309-7.018 3.406z"/>
    <path d="m8.628 81.495 0.973-1.404-0.342-19.034 12.188 11.449-2.591 16.349-0.94 1.511-9.288-8.871z" fill="url(#f)"/>
    <path d="m3.23 84.095 9.189 8.99 5.496-2.719-9.305-8.883-5.38 2.611v0.001z" fill="url(#a)"/>
  </g>
  <g stroke="#0b0b28" stroke-dasharray="4, 4">
    <path d="m130 0.5-69.5 156"/>
    <path d="m130 390.5-69.5-165"/>
    
  </g>
  <rect stroke-linejoin="round" rx="10" ry="10" height="390" width="450" y=".5" x="129.5" fill="#212178" stroke="#0b0b28"/>
  <g fill="#5f5fd3">
    <rect rx="10" ry="10" height="370" width="30" y="10.5" x="139.5"/>
    <rect rx="10" ry="10" height="370" width="190" y="10.5" x="179.5"/>
    <rect rx="10" ry="10" height="150" width="190" y="10.5" x="379.5"/>
    <rect rx="10" ry="10" height="210" width="190" y="170.5" x="379.5"/>
  </g>
  <g fill="#afafe9">
    <rect y="202.5" width="170" x="389.5" height="49"/>
    <rect y="262" width="170" x="389.5" height="49"/>
    <rect y="321.5" width="170" x="389.5" height="49"/>
    <rect y="101.5" width="170" x="389.5" height="49"/>
    <rect y="41.5" width="170" x="389.5" height="49"/>
    <rect y="62" width="170" x="189.5" height="49"/>
    <rect y="148.5" width="170" x="189.5" height="49"/>
    <rect y="235" width="170" x="189.5" height="49"/>
    <rect y="321.5" width="170" x="189.5" height="49"/>
  </g>
  <g font-family="Arial" fill="#0b0b28" style="text-anchor:middle;text-align:center">
    <g font-size="16px" font-weight="bold">
      <switch allowReorder="yes">
        <text systemLanguage="de" transform="rotate(-90)" y="158.64844" x="-195.58203" id="trsvg58"><tspan y="158.64844" x="-195.58203" id="trsvg1">Gesicherte Ein- und Ausgabe</tspan></text>
        <text systemLanguage="fr" transform="rotate(-90)" y="158.64844" x="-195.58203" id="trsvg59"><tspan y="158.64844" x="-195.58203" id="trsvg2">entrées - sorties sécurisées</tspan></text>
        
      <text transform="rotate(-90)" y="158.64844" x="-195.58203" id="trsvg60-es" systemLanguage="es"><tspan y="158.64844" x="-195.58203" id="trsvg3-es">Entrada y salida seguras</tspan></text><text transform="rotate(-90)" y="158.64844" x="-195.58203" id="trsvg60"><tspan y="158.64844" x="-195.58203" id="trsvg3">secured input - output</tspan></text></switch>
      <switch allowReorder="yes">
        <text systemLanguage="de" y="30.148438" x="274.5" id="trsvg61"><tspan y="30.148438" x="274.5" id="trsvg4">Krypto-</tspan><tspan y="50.148438" x="274.5" id="trsvg5">Prozessor</tspan></text>
        <text systemLanguage="fr" y="30.148438" x="274.5" id="trsvg62"><tspan y="30.148438" x="274.5" id="trsvg6">Processeur</tspan><tspan y="50.148438" x="274.5" id="trsvg7">cryptographique</tspan></text>
        
      <text y="30.148438" x="274.5" id="trsvg63-es" systemLanguage="es"><tspan y="30.148438" x="274.5" id="trsvg8-es">Procesador</tspan><tspan y="50.148438" x="274.5" id="trsvg9-es">criptográfico</tspan></text><text y="30.148438" x="274.5" id="trsvg63"><tspan y="30.148438" x="274.5" id="trsvg8">Cryptographic</tspan><tspan y="50.148438" x="274.5" id="trsvg9">processor</tspan></text></switch>
      <switch allowReorder="yes">
        <text systemLanguage="de" y="29.953125" x="474.5" id="trsvg64"><tspan y="29.953125" x="474.5" id="trsvg10">Nichtflüchtiger Speicher</tspan></text>
        <text systemLanguage="fr" y="29.953125" x="474.5" id="trsvg65"><tspan y="29.953125" x="474.5" id="trsvg11">Mémoire persistante</tspan></text>
        
      <text y="29.953125" x="474.5" id="trsvg66-es" systemLanguage="es"><tspan y="29.953125" x="474.5" id="trsvg12-es">Memoria presistente</tspan></text><text y="29.953125" x="474.5" id="trsvg66"><tspan y="29.953125" x="474.5" id="trsvg12">Persistent memory</tspan></text></switch>
      <switch allowReorder="yes">
        <text systemLanguage="de" y="189.95313" x="474.5" id="trsvg67"><tspan y="189.95313" x="474.5" id="trsvg13">Flüchtiger Speicher</tspan></text>
        <text systemLanguage="fr" y="189.95313" x="474.5" id="trsvg68"><tspan y="189.95313" x="474.5" id="trsvg14">Mémoire versatile</tspan></text>
        
      <text y="189.95313" x="474.5" id="trsvg69-es" systemLanguage="es"><tspan y="189.95313" x="474.5" id="trsvg15-es">Memoria versátil</tspan></text><text y="189.95313" x="474.5" id="trsvg69"><tspan y="189.95313" x="474.5" id="trsvg15">Versatile memory</tspan></text></switch>
    </g>
    <g font-size="14px">
      <switch allowReorder="yes">
        <text systemLanguage="de" y="81.287598" x="274.5" id="trsvg70"><tspan y="81.287598" x="274.5" id="trsvg16">Zufallszahlengenerator</tspan><tspan y="98.787598" x="274.5" id="trsvg17">(RNG)</tspan></text>
        <text systemLanguage="fr" y="81.287598" x="274.5" id="trsvg71"><tspan y="81.287598" x="274.5" id="trsvg18">générateur de nombres</tspan><tspan y="98.787598" x="274.5" id="trsvg19">pseudo-aléatoires</tspan></text>
        
      <text y="81.287598" x="274.5" id="trsvg72-es" systemLanguage="es"><tspan y="81.287598" x="274.5" id="trsvg20-es">generador de </tspan><tspan y="98.787598" x="274.5" id="trsvg21-es">número aleatorio</tspan></text><text y="81.287598" x="274.5" id="trsvg72"><tspan y="81.287598" x="274.5" id="trsvg20">random number</tspan><tspan y="98.787598" x="274.5" id="trsvg21">generator</tspan></text></switch>
      <switch allowReorder="yes">
        <text systemLanguage="de" y="176.62305" x="274.5" id="trsvg73"><tspan y="176.62305" x="274.5" id="trsvg22">RSA Schlüsselgenerator</tspan></text>
        <text systemLanguage="fr" y="176.62305" x="274.5" id="trsvg74"><tspan y="176.62305" x="274.5" id="trsvg23">générateur de clés RSA</tspan></text>
        
      <text y="176.62305" x="274.5" id="trsvg75-es" systemLanguage="es"><tspan y="176.62305" x="274.5" id="trsvg24-es">Generador de llave RSA</tspan></text><text y="176.62305" x="274.5" id="trsvg75"><tspan y="176.62305" x="274.5" id="trsvg24">RSA key generator</tspan></text></switch>
      <switch allowReorder="yes">
        <text systemLanguage="de" y="263.12305" x="274.5" id="trsvg76"><tspan y="263.12305" x="274.5" id="trsvg25">SHA-1 Hashgenerator</tspan></text>
        <text systemLanguage="fr" y="263.12305" x="274.5" id="trsvg77"><tspan y="263.12305" x="274.5" id="trsvg26">hacheur SHA-1</tspan></text>
        
      <text y="263.12305" x="274.5" id="trsvg78-es" systemLanguage="es"><tspan y="263.12305" x="274.5" id="trsvg27-es">Generador de hash SHA-1</tspan></text><text y="263.12305" x="274.5" id="trsvg78"><tspan y="263.12305" x="274.5" id="trsvg27">SHA-1 hash generator</tspan></text></switch>
      <switch allowReorder="yes">
        <text systemLanguage="de" y="340.7876" x="274.5" id="trsvg79"><tspan y="340.7876" x="274.5" id="trsvg28">Ver/Entschlüsselungs-</tspan><tspan y="358.2876" x="274.5" id="trsvg29">und Signatureinheit</tspan></text>
        <text systemLanguage="fr" y="340.7876" x="274.5" id="trsvg80"><tspan y="340.7876" x="274.5" id="trsvg30">moteur de chiffrement-</tspan><tspan y="358.2876" x="274.5" id="trsvg31">déchiffrement-signature</tspan></text>
        
      <text y="340.7876" x="274.5" id="trsvg81-es" systemLanguage="es"><tspan y="340.7876" x="274.5" id="trsvg32-es">Mecanismo de firmado</tspan><tspan y="358.2876" x="274.5" id="trsvg33-es">cifrado/descifrado</tspan></text><text y="340.7876" x="274.5" id="trsvg81"><tspan y="340.7876" x="274.5" id="trsvg32">encryption-decryption-</tspan><tspan y="358.2876" x="274.5" id="trsvg33">signature engine</tspan></text></switch>
      <switch allowReorder="yes">
        <text systemLanguage="de" y="69.623047" x="474.5" id="trsvg82"><tspan y="69.623047" x="474.5" id="trsvg34">Endorsement Key (EK)</tspan></text>
        <text systemLanguage="fr" y="69.623047" x="474.5" id="trsvg83"><tspan y="69.623047" x="474.5" id="trsvg35">clé d'attestation (EK)</tspan></text>
        
      <text y="69.623047" x="474.5" id="trsvg84-es" systemLanguage="es"><tspan y="69.623047" x="474.5" id="trsvg36-es">Clave privada (EK)</tspan></text><text y="69.623047" x="474.5" id="trsvg84"><tspan y="69.623047" x="474.5" id="trsvg36">Endorsement Key (EK)</tspan></text></switch>
      <switch allowReorder="yes">
        <text systemLanguage="de" y="120.87305" x="474.5" id="trsvg85"><tspan y="120.87305" x="474.5" id="trsvg37">Storage Root</tspan><tspan y="138.37305" x="474.5" id="trsvg38">Key (SRK)</tspan></text>
        <text systemLanguage="fr" y="120.87305" x="474.5" id="trsvg86"><tspan y="120.87305" x="474.5" id="trsvg39">clé racine pour</tspan><tspan y="138.37305" x="474.5" id="trsvg40">le stockage (SRK)</tspan></text>
        
      <text y="120.87305" x="474.5" id="trsvg87-es" systemLanguage="es"><tspan y="120.87305" x="474.5" id="trsvg41-es">Almacenamiento raíz</tspan><tspan y="138.37305" x="474.5" id="trsvg42-es">Clave pública (SRK)</tspan></text><text y="120.87305" x="474.5" id="trsvg87"><tspan y="120.87305" x="474.5" id="trsvg41">Storage Root</tspan><tspan y="138.37305" x="474.5" id="trsvg42">Key (SRK)</tspan></text></switch>
      <switch allowReorder="yes">
        <text systemLanguage="de" y="221.87305" x="474.5" id="trsvg88"><tspan y="221.87305" x="474.5" id="trsvg43">Platform Configuration</tspan><tspan y="239.37305" x="474.5" id="trsvg44">Registers (PCR)</tspan></text>
        <text systemLanguage="fr" y="221.87305" x="474.5" id="trsvg89"><tspan y="221.87305" x="474.5" id="trsvg45">registres de config.</tspan><tspan y="239.37305" x="474.5" id="trsvg46">de la plate-forme (PCR)</tspan></text>
        
      <text y="221.87305" x="474.5" id="trsvg90-es" systemLanguage="es"><tspan y="221.87305" x="474.5" id="trsvg47-es">Configuración plataforma</tspan><tspan y="239.37305" x="474.5" id="trsvg48-es">Registros (PCR)</tspan></text><text y="221.87305" x="474.5" id="trsvg90"><tspan y="221.87305" x="474.5" id="trsvg47">Platform Configuration</tspan><tspan y="239.37305" x="474.5" id="trsvg48">Registers (PCR)</tspan></text></switch>
      <switch allowReorder="yes">
        <text systemLanguage="de" y="281.2876" x="474.5" id="trsvg91"><tspan y="281.2876" x="474.5" id="trsvg49">Attestation Identity</tspan><tspan y="298.7876" x="474.5" id="trsvg50">Keys (AIK)</tspan></text>
        <text systemLanguage="fr" y="281.2876" x="474.5" id="trsvg92"><tspan y="281.2876" x="474.5" id="trsvg51">clés d'identité</tspan><tspan y="298.7876" x="474.5" id="trsvg52">d'attestation (AIK)</tspan></text>
        
      <text y="281.2876" x="474.5" id="trsvg93-es" systemLanguage="es"><tspan y="281.2876" x="474.5" id="trsvg53-es">Identidad de la certificación</tspan><tspan y="298.7876" x="474.5" id="trsvg54-es">Claves (AIK)</tspan></text><text y="281.2876" x="474.5" id="trsvg93"><tspan y="281.2876" x="474.5" id="trsvg53">Attestation Identity</tspan><tspan y="298.7876" x="474.5" id="trsvg54">Keys (AIK)</tspan></text></switch>
      <switch allowReorder="yes">
        <text systemLanguage="de" y="349.5376" x="474.5" id="trsvg94"><tspan y="349.5376" x="474.5" id="trsvg55">Gespeicherte Schlüssel</tspan></text>
        <text systemLanguage="fr" y="349.5376" x="474.5" id="trsvg95"><tspan y="349.5376" x="474.5" id="trsvg56">clés de stockage</tspan></text>
        
      <text y="349.5376" x="474.5" id="trsvg96-es" systemLanguage="es"><tspan y="349.5376" x="474.5" id="trsvg57-es">Claves de almacenamiento</tspan></text><text y="349.5376" x="474.5" id="trsvg96"><tspan y="349.5376" x="474.5" id="trsvg57">storage keys</tspan></text></switch>
    </g>
  </g>
</svg>
